<svg xmlns="http://www.w3.org/2000/svg" viewBox="0 0 24 24">
  <rect width="24" height="24" rx="6" fill="#4450d8"/>
  <path fill="#fff" d="M16.29 8.09a9.04 9.04 0 0 0-2.37-.76c-.1.18-.22.43-.3.62a8.55 8.55 0 0 0-3.25 0c-.08-.2-.2-.44-.3-.62a9.08 9.08 0 0 0-2.38.77c-1.55 2.26-1.97 4.46-1.76 6.62a8.66 8.66 0 0 0 2.88 1.45c.23-.3.43-.61.6-.94a5.36 5.36 0 0 1-1.01-.5c.09-.07.18-.15.27-.22a6.16 6.16 0 0 0 4.24 0c.09.07.18.15.27.22-.32.2-.66.37-1.02.5.17.33.37.64.6.94a8.61 8.61 0 0 0 2.89-1.45c.27-2.63-.38-4.8-1.76-6.63Zm-4.82 5.37c-.49 0-.89-.44-.89-.98s.4-.98.89-.98.89.44.89.98-.4.98-.89.98Zm3.15 0c-.49 0-.89-.44-.89-.98s.4-.98.89-.98.89.44.89.98-.4.98-.89.98Z"/>
</svg>
