<svg xmlns="http://www.w3.org/2000/svg" viewBox="0 0 24 24">
  <rect width="24" height="24" rx="6" fill="#0b1023"/>
  <path fill="#4ef1ff" d="M12 5a7 7 0 1 0 0 14 7 7 0 0 0 0-14Zm-1.73 1.73A8.44 8.44 0 0 0 9.1 11H6.7a5.3 5.3 0 0 1 3.57-4.27ZM6.7 13h2.4c.17 1.51.6 2.85 1.17 3.99A5.3 5.3 0 0 1 6.7 13Zm4.04-4h2.52a12.3 12.3 0 0 1-.9 4 12.3 12.3 0 0 1-.9-4Zm0-2c.34-.9.76-1.69 1.2-2.32.45.63.86 1.42 1.2 2.32h-2.4Zm2.84 10.99c.58-1.14 1-2.48 1.18-3.99h2.4a5.3 5.3 0 0 1-3.58 3.99Zm1.18-4.99c-.18-1.51-.6-2.85-1.18-3.99A5.3 5.3 0 0 1 17.52 11h-2.4Z"/>
</svg>
